<svg id="Layer_1" data-name="Layer 1" xmlns="http://www.w3.org/2000/svg" viewBox="0 0 512 512"><path class="iconmax2" d="M256,106.79c-82.27,0-149.21,66.94-149.21,149.21S173.73,405.21,256,405.21,405.21,338.27,405.21,256,338.27,106.79,256,106.79Zm61.74,270.63-22.42-49.81a50.09,50.09,0,0,1-11.23,6.63l21.85,48.51A135.47,135.47,0,0,1,256,392.23c-75.12,0-136.23-61.11-136.23-136.23S180.88,119.77,256,119.77a135.46,135.46,0,0,1,70.09,19.45L294,187.43a49,49,0,0,1,7.92,11.41l35-52.43a136.15,136.15,0,0,1,55.25,103.1h-98.9a44,44,0,0,1,14,13h84.89A136.45,136.45,0,0,1,317.74,377.42Z"/><path class="iconmax2" d="M257.41,250.74c-21-4.65-33.85-8.36-33.85-25.06a32.31,32.31,0,0,1,4.12-14.48c5.21-9,14.74-13.59,28.32-13.59,24.68,0,25.88,23.39,25.95,26l13-.16c-.15-12.42-7.35-35-32.43-38.38V165.18h-13V185c-11.24,1.09-20.36,5.07-27.14,11.92-11.85,12-11.79,28.22-11.78,28.83,0,27.91,24.4,33.34,44,37.69,21,4.66,33.85,8.37,33.85,25,0,25.49-31.14,25.93-32.44,25.95-31.19,0-32.4-23.34-32.44-26l-6.48.06h-6.49c0,12.6,8.32,35.75,38.92,38.62v19.76h13V326.94c16.2-2,38.92-11.58,38.92-38.5C301.41,260.52,277,255.1,257.41,250.74Z"/><path class="iconmax2" d="M256,512A256,256,0,0,1,75,75,256,256,0,0,1,437,437,254.33,254.33,0,0,1,256,512Zm0-499C122,13,13,122,13,256S122,499,256,499,499,390,499,256,390,13,256,13Z"/></svg>